<?xml version="1.0" encoding="UTF-8" standalone="no"?>
<svg
   xmlns:dc="http://purl.org/dc/elements/1.1/"
   xmlns:cc="http://creativecommons.org/ns#"
   xmlns:rdf="http://www.w3.org/1999/02/22-rdf-syntax-ns#"
   xmlns:svg="http://www.w3.org/2000/svg"
   xmlns="http://www.w3.org/2000/svg"
   xmlns:sodipodi="http://sodipodi.sourceforge.net/DTD/sodipodi-0.dtd"
   xmlns:inkscape="http://www.inkscape.org/namespaces/inkscape"
   version="1.0"
   width="1300"
   height="1300"
   viewBox="0 0 1040 1040"
   preserveAspectRatio="xMidYMid meet"
   id="svg4152"
   inkscape:version="0.91 r13725"
   sodipodi:docname="geoswitch7_inverse.svg"
   inkscape:export-filename="C:\Users\vzhukovskyy\Projects\home\geoswitch\app\src\main\res\mipmap-mdpi\geoswitch_inverse.png"
   inkscape:export-xdpi="3.323077"
   inkscape:export-ydpi="3.323077">
  <defs
     id="defs4168" />
  <sodipodi:namedview
     pagecolor="#ffffff"
     bordercolor="#666666"
     borderopacity="1"
     objecttolerance="10"
     gridtolerance="10"
     guidetolerance="10"
     inkscape:pageopacity="0"
     inkscape:pageshadow="2"
     inkscape:window-width="1920"
     inkscape:window-height="1017"
     id="namedview4166"
     showgrid="false"
     inkscape:zoom="0.25797442"
     inkscape:cx="1433.2761"
     inkscape:cy="151.57151"
     inkscape:window-x="-8"
     inkscape:window-y="-8"
     inkscape:window-maximized="1"
     inkscape:current-layer="svg4152"
     units="px" />
  <metadata
     id="metadata4154">
Created by potrace 1.13, written by Peter Selinger 2001-2015
<rdf:RDF>
  <cc:Work
     rdf:about="">
    <dc:format>image/svg+xml</dc:format>
    <dc:type
       rdf:resource="http://purl.org/dc/dcmitype/StillImage" />
    <dc:title></dc:title>
  </cc:Work>
</rdf:RDF>
</metadata>
  <g
     transform="matrix(0.0984469,0,0,-0.09910106,27.197282,1035.4968)"
     id="g4156"
     style="fill:#ffffff;stroke:none">
    <path
       d="m 4605,10320 c -194,-31 -347,-67 -485,-111 -854,-279 -1529,-932 -1840,-1779 -46,-126 -109,-364 -134,-505 -41,-227 -39,-780 4,-1065 107,-723 376,-1532 810,-2435 40,-82 115,-242 167,-355 345,-747 939,-1782 1527,-2660 231,-346 284,-399 370,-370 55,18 122,100 302,370 588,878 1182,1913 1527,2660 52,113 127,273 167,355 434,903 703,1712 810,2435 43,285 45,838 4,1065 -163,923 -742,1702 -1573,2120 -276,138 -540,220 -894,275 -166,27 -211,30 -390,29 -169,-1 -230,-6 -372,-29 z m 805,-400 c 325,-57 667,-194 953,-383 156,-104 252,-182 379,-310 207,-208 361,-422 478,-662 181,-374 260,-721 260,-1150 0,-753 -300,-1763 -875,-2951 -53,-110 -113,-235 -133,-279 -150,-329 -462,-915 -753,-1411 -261,-447 -706,-1144 -729,-1144 -23,0 -468,697 -729,1144 -291,496 -603,1082 -753,1411 -20,44 -80,169 -133,279 -510,1052 -802,1964 -865,2691 -60,708 125,1349 538,1862 101,125 270,296 375,381 303,242 706,433 1070,507 186,37 275,44 547,40 196,-2 270,-8 370,-25 z"
       id="path4158"
       inkscape:connector-curvature="0"
       style="fill:#ffffff" />
    <path
       d="m 4802,8873 c -4,-10 -7,-331 -7,-713 l 0,-695 195,0 195,0 3,635 c 1,349 -1,669 -5,710 l -8,75 -183,3 c -167,2 -183,1 -190,-15 z"
       id="path4160"
       inkscape:connector-curvature="0"
       style="fill:#ffffff" />
    <path
       d="m 4190,8445 c -129,-41 -390,-345 -504,-585 -55,-118 -79,-187 -107,-320 -33,-150 -33,-447 -1,-597 61,-284 181,-508 386,-722 265,-276 652,-443 1026,-443 530,0 1044,323 1288,808 215,428 200,961 -38,1378 -99,172 -319,419 -417,467 -71,35 -156,33 -211,-4 -87,-57 -128,-153 -103,-239 9,-27 42,-71 114,-146 204,-215 272,-314 326,-476 63,-191 64,-455 2,-638 -116,-344 -383,-593 -739,-690 -110,-30 -334,-30 -444,0 -356,97 -623,346 -739,690 -62,183 -61,447 2,638 54,162 122,261 326,476 72,75 105,119 114,146 35,118 -61,255 -187,267 -28,3 -68,-1 -94,-10 z"
       id="path4162"
       inkscape:connector-curvature="0"
       style="fill:#ffffff" />
    <path
       d="m 2785,2823 c -86,-12 -520,-86 -631,-108 C 1541,2593 1066,2445 690,2259 440,2135 265,2007 148,1863 82,1782 67,1753 29,1641 -12,1521 -12,1411 29,1310 77,1193 120,1130 225,1024 540,707 1185,447 2118,260 2971,90 3962,0 4990,0 c 1028,0 2019,90 2872,260 592,119 1043,258 1403,435 229,112 365,203 490,329 105,106 148,169 196,286 41,101 41,211 0,331 -38,112 -53,141 -119,222 -117,144 -292,272 -542,396 -376,186 -851,334 -1464,456 -186,37 -589,103 -673,111 -72,7 -72,7 -83,-20 -11,-29 -14,-266 -4,-303 8,-29 25,-34 301,-78 898,-143 1620,-374 1963,-626 85,-62 186,-168 207,-216 23,-54 22,-158 -2,-208 -11,-22 -51,-72 -90,-110 C 8995,814 7599,475 5795,378 5496,362 4484,362 4185,378 2381,475 985,814 535,1265 c -39,38 -79,88 -90,110 -24,50 -25,154 -2,208 21,48 122,154 207,216 343,252 1065,483 1963,626 276,44 293,49 301,78 10,36 7,274 -4,301 -8,23 -15,26 -52,25 -24,-1 -56,-4 -73,-6 z"
       id="path4164"
       inkscape:connector-curvature="0"
       style="fill:#ffffff" />
  </g>
</svg>
